<svg width="141" height="24" viewBox="0 0 141 24" fill="none" xmlns="http://www.w3.org/2000/svg">
<g clip-path="url(#clip0)">
<path d="M11.9668 3.82792C7.72115 3.82792 4.40818 7.10899 4.40818 11.2908C4.40818 15.5046 7.72115 18.7856 11.9668 18.7856C14.1223 18.7856 16.4053 17.7892 18.0778 16.1486L20.6191 18.9801C18.3026 21.3285 14.9896 22.8399 11.7405 22.8399C5.11452 22.8384 0 17.853 0 11.3546C0 4.92161 5.17832 0 11.9015 0C15.1187 0 18.3998 1.38382 20.5872 3.6031L18.0778 6.75505C16.4691 4.9535 14.1861 3.82792 11.9668 3.82792Z" fill="#273856"/>
<path d="M40.1126 14.0251C40.1126 19.2687 36.4457 22.8065 31.0745 22.8065C25.6379 22.8065 21.971 19.2687 21.971 14.0251C21.971 8.81332 25.6379 5.30743 31.0745 5.30743C36.4457 5.30743 40.1126 8.81332 40.1126 14.0251ZM26.1848 14.0889C26.1848 17.177 28.1792 19.3006 31.0745 19.3006C33.9044 19.3006 35.8988 17.177 35.8988 14.0889C35.8988 11.0007 33.9044 8.87712 31.0745 8.87712C28.1792 8.87864 26.1848 11.0007 26.1848 14.0889Z" fill="#273856"/>
<path d="M60.475 11.9015V22.6455H56.2613V13.1243C56.2613 10.7121 54.8136 9.23258 52.4333 9.23258C49.6034 9.26448 47.9295 11.3562 47.9295 14.1861V22.6455H43.7476V5.43657H47.9295V8.65384C49.1523 6.36924 51.3062 5.30897 54.1058 5.27707C58.0628 5.27555 60.475 7.81686 60.475 11.9015Z" fill="#273856"/>
<path d="M80.5791 15.5046H67.8726C68.4194 17.9487 70.2848 19.4282 72.7942 19.4282C74.5638 19.4282 76.2044 18.7522 77.4256 17.4975L79.6768 19.8459C77.9725 21.7113 75.4631 22.8049 72.4387 22.8049C67.0994 22.8049 63.5935 19.2672 63.5935 14.0873C63.5935 8.84369 67.1966 5.30591 72.343 5.30591C78.3917 5.30743 80.9968 9.26446 80.5791 15.5046ZM76.7831 12.7065C76.6859 10.1652 74.9816 8.5566 72.3764 8.5566C69.8989 8.5566 68.1627 10.1652 67.7769 12.7065H76.7831Z" fill="#273856"/>
<path d="M86.2405 5.43655L89.8117 11.0341L93.4786 5.43655H98.0781L92.6097 13.8321L98.464 22.6455H93.6396L89.8117 16.6302L85.6617 22.6455H80.9968L87.0121 13.8321L81.4146 5.43655H86.2405Z" fill="#273856"/>
<path d="M110.882 22.6455V20.5553C109.693 22.0667 107.762 22.8384 105.318 22.8384C101.619 22.8384 99.3025 20.5553 99.3025 17.4991C99.3025 14.3152 101.651 12.3526 105.833 12.3207H110.85V11.8711C110.85 9.87664 109.532 8.68725 106.958 8.68725C105.35 8.68725 103.613 9.2341 101.844 10.2959L100.332 7.40065C102.81 6.01683 104.739 5.27707 107.891 5.27707C112.395 5.27707 114.936 7.56015 114.968 11.3881L115 22.647H110.882V22.6455ZM110.849 16.6621V15.1188H106.506C104.286 15.1188 103.256 15.7294 103.256 17.2423C103.256 18.69 104.414 19.6226 106.313 19.6226C108.726 19.6211 110.624 18.3345 110.849 16.6621Z" fill="#273856"/>
<g clip-path="url(#clip1)">
<path d="M129.316 16.5631C127.692 14.9685 125.466 13.983 123.008 13.983C123.005 13.983 123.002 13.983 123 13.983V11.4046H129.416V5H134.584V11.4046H141V16.5631H134.584V22.9676H131.999C131.999 22.9645 131.999 22.9614 131.999 22.9599C131.999 20.5079 131.014 18.2841 129.416 16.6648L129.316 16.5631Z" fill="#F28080"/>
<path d="M123.025 20.366V22.9676C124.463 22.9676 125.629 22.9661 125.629 22.9661C125.631 21.5304 124.465 20.366 123.025 20.366Z" fill="#F28080"/>
<path d="M129.842 22.9984C129.842 19.2402 126.791 16.1945 123.026 16.1945V18.227C125.667 18.227 127.806 20.3629 127.806 22.9984H129.842Z" fill="#F28080"/>
</g>
</g>
<defs>
<clipPath id="clip0">
<rect width="141" height="23.2636" fill="white"/>
</clipPath>
<clipPath id="clip1">
<rect width="18" height="18" fill="white" transform="translate(123 5.26361)"/>
</clipPath>
</defs>
</svg>
