<svg width="48" height="40" viewBox="0 0 48 40" fill="none" xmlns="http://www.w3.org/2000/svg">
<path d="M45.2903 8.62732H35.6129V2.74506C35.6121 2.01727 35.3264 1.31952 34.8184 0.804897C34.3104 0.290273 33.6216 0.000804429 32.9032 0H2.70968C1.99127 0.000804429 1.30251 0.290273 0.794523 0.804897C0.286532 1.31952 0.000794062 2.01727 0 2.74506V22.3526C0.000794062 23.0804 0.286532 23.7781 0.794523 24.2928C1.30251 24.8074 1.99127 25.0968 2.70968 25.0977H4.64516V30.5878C4.64504 30.743 4.69038 30.8947 4.77544 31.0238C4.8605 31.1529 4.98146 31.2535 5.123 31.3129C5.26454 31.3724 5.4203 31.3879 5.57056 31.3576C5.72082 31.3273 5.85882 31.2525 5.9671 31.1427L11.9332 25.0977H12.3871V30.9799C12.3879 31.7077 12.6736 32.4054 13.1816 32.9201C13.6896 33.4347 14.3784 33.7242 15.0968 33.725H36.0668L42.0329 39.77C42.1412 39.8798 42.2792 39.9546 42.4294 39.9849C42.5797 40.0152 42.7355 39.9997 42.877 39.9403C43.0185 39.8809 43.1395 39.7802 43.2246 39.6511C43.3096 39.522 43.355 39.3703 43.3548 39.2151V33.725H45.2903C46.0087 33.7242 46.6975 33.4347 47.2055 32.9201C47.7135 32.4054 47.9992 31.7077 48 30.9799V11.3724C47.9992 10.6446 47.7135 9.94684 47.2055 9.43221C46.6975 8.91759 46.0087 8.62812 45.2903 8.62732ZM11.6129 23.529C11.4075 23.529 11.2105 23.6115 11.0652 23.7585L6.19355 28.6947V24.3134C6.19355 24.1053 6.11198 23.9058 5.96679 23.7588C5.8216 23.6117 5.62468 23.529 5.41935 23.529H2.70968C2.40176 23.5288 2.10653 23.4048 1.8888 23.1842C1.67108 22.9636 1.54864 22.6645 1.54839 22.3526V2.74506C1.54864 2.43312 1.67108 2.13404 1.8888 1.91347C2.10653 1.69289 2.40176 1.56886 2.70968 1.5686H32.9032C33.2111 1.56886 33.5064 1.69289 33.7241 1.91347C33.9418 2.13404 34.0643 2.43312 34.0645 2.74506V22.3526C34.0643 22.6645 33.9418 22.9636 33.7241 23.1842C33.5064 23.4048 33.2111 23.5288 32.9032 23.529H11.6129ZM46.4516 30.9799C46.4514 31.2918 46.3289 31.5909 46.1112 31.8115C45.8935 32.0321 45.5982 32.1561 45.2903 32.1564H42.5806C42.3753 32.1564 42.1784 32.239 42.0332 32.3861C41.888 32.5332 41.8064 32.7327 41.8064 32.9407V37.322L36.9348 32.3858C36.7895 32.2388 36.5925 32.1563 36.3871 32.1564H15.0968C14.7889 32.1561 14.4936 32.0321 14.2759 31.8115C14.0582 31.5909 13.9357 31.2918 13.9355 30.9799V25.0977H32.9032C33.6216 25.0968 34.3104 24.8074 34.8184 24.2928C35.3264 23.7781 35.6121 23.0804 35.6129 22.3526V10.1959H45.2903C45.5982 10.1962 45.8935 10.3202 46.1112 10.5408C46.3289 10.7614 46.4514 11.0604 46.4516 11.3724V30.9799Z" fill="black"/>
<path d="M13.9355 9.41162C13.9355 8.63601 14.1625 7.87783 14.5879 7.23294C15.0132 6.58805 15.6178 6.08542 16.3251 5.78861C17.0324 5.4918 17.8108 5.41415 18.5616 5.56546C19.3125 5.71677 20.0023 6.09026 20.5436 6.63869C21.085 7.18712 21.4537 7.88587 21.603 8.64657C21.7524 9.40727 21.6757 10.1958 21.3828 10.9123C21.0898 11.6289 20.5936 12.2413 19.9571 12.6722C19.3205 13.1031 18.5721 13.3331 17.8065 13.3331C17.6011 13.3331 17.4042 13.4158 17.259 13.5628C17.1138 13.7099 17.0323 13.9094 17.0323 14.1174V17.2546C17.0323 17.4626 17.1138 17.6621 17.259 17.8092C17.4042 17.9563 17.6011 18.0389 17.8065 18.0389C18.0118 18.0389 18.2087 17.9563 18.3539 17.8092C18.4991 17.6621 18.5806 17.4626 18.5806 17.2546V14.8459C19.6088 14.6956 20.5726 14.2491 21.3573 13.5596C22.142 12.8701 22.7146 11.9667 23.0069 10.9568C23.2991 9.94703 23.2988 8.8734 23.0058 7.86379C22.7129 6.85417 22.1397 5.95113 21.3545 5.26218C20.5693 4.57323 19.6051 4.12741 18.5769 3.9778C17.5487 3.82819 16.4997 3.98109 15.5549 4.41831C14.61 4.85553 13.8091 5.55863 13.2474 6.44389C12.6858 7.32916 12.3872 8.35929 12.3871 9.41162C12.3871 9.61963 12.4687 9.81912 12.6139 9.9662C12.759 10.1133 12.956 10.1959 13.1613 10.1959C13.3666 10.1959 13.5635 10.1133 13.7087 9.9662C13.8539 9.81912 13.9355 9.61963 13.9355 9.41162Z" fill="black"/>
<path d="M17.8065 18.8232C17.6011 18.8232 17.4042 18.9059 17.259 19.053C17.1138 19.2 17.0323 19.3995 17.0323 19.6075V20.3918C17.0323 20.5999 17.1138 20.7993 17.259 20.9464C17.4042 21.0935 17.6011 21.1761 17.8065 21.1761C18.0118 21.1761 18.2087 21.0935 18.3539 20.9464C18.4991 20.7993 18.5807 20.5999 18.5807 20.3918V19.6075C18.5807 19.3995 18.4991 19.2 18.3539 19.053C18.2087 18.9059 18.0118 18.8232 17.8065 18.8232Z" fill="black"/>
</svg>
