<svg width="338" height="266" viewBox="0 0 338 266" fill="none" xmlns="http://www.w3.org/2000/svg">
<g clip-path="url(#clip0)">
<path d="M123.525 189.757H65.6133L62.0984 149.201H120.01L123.525 189.757Z" fill="#DAD2D0"/>
<path d="M126.525 189.757H68.6135L65.0987 149.201H123.011L126.525 189.757Z" fill="#F4F2F1"/>
<path d="M76.5328 181.044L74.5966 157.905H115.091L117.028 181.044H76.5328Z" fill="white"/>
<path d="M136.547 189.757H129.753V265.4H136.547V189.757Z" fill="#DAD2D0"/>
<path d="M138.692 189.757H133.974V265.4H138.692V189.757Z" fill="#F4F2F1"/>
<path d="M72.922 198.103H138.692V189.757H72.922V198.103Z" fill="#F4F2F1"/>
<path d="M75.2421 198.103H68.4479V265.4H75.2421V198.103Z" fill="#DAD2D0"/>
<path d="M77.3876 198.103H72.6691V265.4H77.3876V198.103Z" fill="#F4F2F1"/>
<path d="M26.8803 198.103H20.0861V265.4H26.8803V198.103Z" fill="#DAD2D0"/>
<path d="M29.0257 198.103H24.3073V265.4H29.0257V198.103Z" fill="#F4F2F1"/>
<path d="M93.5489 198.103H86.7547V265.4H93.5489V198.103Z" fill="#DAD2D0"/>
<path d="M95.6856 198.103H90.9672V265.4H95.6856V198.103Z" fill="#F4F2F1"/>
<path d="M72.922 189.757H20.0861V198.103H72.922V189.757Z" fill="#DAD2D0"/>
<path d="M48.074 177.311C48.1616 177.312 48.2484 177.294 48.3283 177.257C48.4081 177.221 48.4791 177.168 48.5362 177.102C49.6613 175.767 48.7368 172.575 47.4635 168.153C45.8238 162.484 43.7829 155.42 45.5098 150.3C46.467 147.596 47.5854 144.951 48.8589 142.381C51.301 137.217 53.4117 132.787 51.6499 128.095C51.6224 128.02 51.5804 127.951 51.5263 127.893C51.4722 127.835 51.407 127.788 51.3347 127.755C51.2623 127.722 51.1841 127.704 51.1046 127.701C51.025 127.698 50.9458 127.712 50.8715 127.74C50.7971 127.768 50.7291 127.811 50.6713 127.866C50.6136 127.92 50.5672 127.986 50.535 128.059C50.5027 128.131 50.4852 128.21 50.4835 128.289C50.4817 128.369 50.4958 128.448 50.5248 128.522C52.1034 132.7 50.1934 136.746 47.7687 141.875C46.479 144.487 45.3432 147.172 44.3673 149.916C42.527 155.393 44.6202 162.659 46.3035 168.485C47.2978 171.973 48.3269 175.462 47.6205 176.334C47.5644 176.394 47.5215 176.466 47.4944 176.543C47.4674 176.621 47.4568 176.704 47.4633 176.786C47.4699 176.868 47.4935 176.947 47.5325 177.02C47.5716 177.092 47.6253 177.156 47.6902 177.206C47.8017 177.286 47.9377 177.323 48.074 177.311V177.311Z" fill="#1C307F"/>
<path d="M58.1301 171.101V173.212H56.7869L55.6706 189.757H39.2389L38.1313 173.212H36.7794V171.101H58.1301Z" fill="#FFA490"/>
<path d="M52.7226 130.048C51.3794 120.193 38.0789 117.384 21.2024 117.018C5.14579 116.678 0 111 0 111C0 111 0.0523263 133.999 23.191 142.337C45.1609 150.239 54.0744 139.921 52.7226 130.048Z" fill="#5873DD"/>
<path d="M44.5243 152.384C44.8034 148.338 51.2749 140.889 66.8431 144.273C78.0941 146.724 82.2805 140.889 82.2805 140.889C82.2805 140.889 81.2339 157.356 64.3138 162.301C48.2397 167.002 44.0272 159.519 44.5243 152.384Z" fill="#2E50D4"/>
<path d="M329.524 265.46H169.432L160.672 7.9933H320.764L329.524 265.46Z" fill="#2540AA"/>
<path d="M337.518 257.467H177.426L168.654 0H328.747L337.518 257.467Z" fill="#2E50D4"/>
<path d="M337.518 257.467H177.426L168.654 0H328.747L337.518 257.467Z" fill="#8296E5"/>
<path d="M288.385 73.8453C288.616 79.9803 287.277 86.0726 284.496 91.5457C281.494 97.4438 276.908 102.389 271.252 105.826C265.597 109.263 259.095 111.056 252.477 111.005C245.704 110.968 239.059 109.151 233.21 105.736C227.36 102.32 222.512 97.4265 219.151 91.5457C216.017 86.1567 214.266 80.0757 214.055 73.8453C213.847 69.0145 214.623 64.1918 216.337 59.6702C218.051 55.1487 220.665 51.0227 224.023 47.543C227.38 44.0632 231.41 41.3024 235.867 39.4283C240.325 37.5541 245.117 36.6058 249.952 36.6408C259.913 36.7113 269.464 40.6162 276.621 47.5445C283.778 54.4728 287.991 63.8919 288.385 73.8453V73.8453Z" fill="white"/>
<path opacity="0.6" d="M284.473 91.5458C281.471 97.4439 276.885 102.389 271.23 105.826C265.574 109.263 259.073 111.057 252.455 111.005C245.681 110.968 239.037 109.151 233.187 105.736C227.338 102.32 222.489 97.4266 219.128 91.5458C228.663 85.0452 239.945 81.5898 251.485 81.6359C263.211 81.6612 274.675 85.1051 284.473 91.5458Z" fill="#DAD2D0"/>
<path opacity="0.6" d="M262.795 72.9182C269.098 66.5064 268.83 56.0221 262.196 49.5008C255.562 42.9795 245.075 42.8907 238.772 49.3025C232.469 55.7143 232.737 66.1986 239.371 72.7199C246.005 79.2413 256.492 79.33 262.795 72.9182Z" fill="#DAD2D0"/>
<path d="M305.353 164.23H203.232L202.544 143.937H304.665L305.353 164.23Z" fill="white"/>
<path d="M306.593 200.499H204.461L203.773 180.205H305.905L306.593 200.499Z" fill="white"/>
<path d="M289.738 228.921H223.255L222.815 215.707H289.287L289.738 228.921Z" fill="#2E50D4"/>
<path d="M257.663 154.083C257.683 154.565 257.605 155.046 257.433 155.497C257.262 155.948 257.001 156.359 256.665 156.706C256.33 157.053 255.928 157.328 255.483 157.514C255.038 157.701 254.56 157.796 254.078 157.792C253.084 157.785 252.131 157.395 251.415 156.705C250.7 156.015 250.277 155.076 250.234 154.083C250.214 153.601 250.292 153.12 250.464 152.669C250.635 152.219 250.896 151.807 251.232 151.461C251.567 151.114 251.969 150.839 252.414 150.652C252.858 150.465 253.336 150.37 253.819 150.374C254.814 150.379 255.768 150.767 256.484 151.458C257.2 152.149 257.623 153.089 257.663 154.083V154.083Z" fill="#575453"/>
<path d="M241.632 154.083C241.653 154.565 241.576 155.047 241.405 155.499C241.234 155.95 240.973 156.362 240.637 156.709C240.302 157.056 239.899 157.332 239.453 157.518C239.008 157.704 238.529 157.797 238.046 157.792C237.053 157.784 236.102 157.395 235.388 156.704C234.674 156.014 234.254 155.075 234.213 154.083C234.193 153.601 234.272 153.12 234.443 152.669C234.615 152.219 234.876 151.807 235.211 151.461C235.546 151.114 235.949 150.839 236.393 150.652C236.838 150.465 237.316 150.37 237.798 150.374C238.792 150.379 239.746 150.768 240.46 151.459C241.174 152.15 241.594 153.09 241.632 154.083V154.083Z" fill="#575453"/>
<path d="M225.701 154.083C225.721 154.565 225.643 155.046 225.471 155.497C225.3 155.948 225.038 156.359 224.703 156.706C224.368 157.053 223.966 157.328 223.521 157.514C223.076 157.701 222.598 157.796 222.116 157.792C221.122 157.787 220.169 157.399 219.455 156.707C218.74 156.016 218.321 155.076 218.283 154.083C218.263 153.601 218.341 153.12 218.513 152.669C218.684 152.219 218.946 151.807 219.281 151.461C219.616 151.114 220.018 150.839 220.463 150.652C220.908 150.465 221.386 150.37 221.868 150.374C222.862 150.379 223.815 150.768 224.53 151.459C225.244 152.15 225.663 153.09 225.701 154.083V154.083Z" fill="#575453"/>
<path d="M273.639 154.083C273.659 154.565 273.58 155.046 273.409 155.497C273.237 155.948 272.976 156.359 272.641 156.706C272.305 157.053 271.903 157.328 271.459 157.514C271.014 157.701 270.536 157.796 270.054 157.792C269.06 157.787 268.106 157.399 267.392 156.707C266.678 156.016 266.258 155.076 266.22 154.083C266.204 153.603 266.284 153.124 266.458 152.675C266.632 152.227 266.895 151.819 267.231 151.475C267.568 151.131 267.97 150.86 268.415 150.676C268.859 150.493 269.336 150.401 269.817 150.408C270.803 150.415 271.749 150.801 272.46 151.484C273.171 152.168 273.593 153.098 273.639 154.083V154.083Z" fill="#575453"/>
<path d="M289.614 154.083C289.636 154.565 289.559 155.047 289.388 155.499C289.217 155.95 288.955 156.362 288.62 156.709C288.284 157.056 287.882 157.332 287.436 157.518C286.991 157.704 286.512 157.797 286.029 157.792C285.036 157.784 284.084 157.395 283.371 156.704C282.657 156.014 282.236 155.075 282.196 154.083C282.176 153.601 282.254 153.12 282.426 152.669C282.597 152.219 282.859 151.807 283.194 151.461C283.529 151.114 283.931 150.839 284.376 150.652C284.821 150.465 285.299 150.37 285.781 150.374C286.775 150.379 287.728 150.768 288.442 151.459C289.157 152.15 289.576 153.09 289.614 154.083V154.083Z" fill="#575453"/>
</g>
<defs>
<clipPath id="clip0">
<rect width="337.518" height="265.46" fill="white"/>
</clipPath>
</defs>
</svg>
